<svg xmlns="http://www.w3.org/2000/svg" viewBox="0 0 400 400" width="100%" height="100%">
  <rect width="400" height="400" fill="#FFFFFF"/>

  <g stroke="#000000" stroke-width="3" fill="none" stroke-linecap="round" stroke-linejoin="round">
    <path d="M 120 180 L 120 100 L 200 40 L 280 100 L 280 180"/>

    <line x1="200" y1="120" x2="200" y2="340"/>
    <line x1="170" y1="340" x2="230" y2="340"/>

    <path d="M 90 200 Q 200 170 310 200"/>

    <line x1="90" y1="200" x2="55" y2="280"/>
    <line x1="90" y1="200" x2="125" y2="280"/>
    <path d="M 55 280 Q 90 310 125 280"/>

    <text x="90" y="272" font-family="'Helvetica Neue', Helvetica, sans-serif" font-size="28" font-weight="400" text-anchor="middle" fill="#D4AF37" stroke="none">€</text>

    <line x1="310" y1="200" x2="275" y2="280"/>
    <line x1="310" y1="200" x2="345" y2="280"/>
    <path d="M 275 280 Q 310 310 345 280"/>

    <g stroke="#D4AF37" stroke-width="2.5">
      <circle cx="310" cy="260" r="7"/>
      <line x1="310" y1="244" x2="310" y2="248"/>
      <line x1="310" y1="272" x2="310" y2="276"/>
      <line x1="294" y1="260" x2="298" y2="260"/>
      <line x1="322" y1="260" x2="326" y2="260"/>
      <line x1="299" y1="249" x2="302" y2="252"/>
      <line x1="318" y1="268" x2="321" y2="271"/>
      <line x1="299" y1="271" x2="302" y2="268"/>
      <line x1="318" y1="252" x2="321" y2="249"/>
    </g>
  </g>
</svg>
